<svg width="56" height="25" viewBox="0 0 56 25" fill="none" xmlns="http://www.w3.org/2000/svg">
<path d="M37 10.4926C32 10.4926 28 6.49571 28 1C28 6.49571 24 10.4926 19 10.4926" stroke="#35A97F" stroke-width="2" stroke-linejoin="round"/>
<path d="M37 17.9867C32 17.9867 28 13.9899 28 8.49414C28 13.9899 24 17.9867 19 17.9867" stroke="#35A97F" stroke-width="2" stroke-linejoin="round"/>
<line x1="28" y1="3.49805" x2="28" y2="24.4817" stroke="#35A97F" stroke-width="2" stroke-linejoin="round"/>
<path d="M55.8723 15.2548C52.5745 15.2548 49.9362 12.6186 49.9362 8.99377C49.9362 12.6186 47.2979 15.2548 44 15.2548" stroke="#35A97F" stroke-width="2" stroke-linejoin="round"/>
<path d="M55.8723 20.1977C52.5745 20.1977 49.9362 17.5615 49.9362 13.9366C49.9362 17.5615 47.2979 20.1977 44 20.1977" stroke="#35A97F" stroke-width="2" stroke-linejoin="round"/>
<line x1="50.2766" y1="10.6414" x2="50.2766" y2="24.4816" stroke="#35A97F" stroke-width="2" stroke-linejoin="round"/>
<path d="M11.8723 15.2548C8.57447 15.2548 5.93617 12.6186 5.93617 8.99377C5.93617 12.6186 3.29787 15.2548 1.07288e-06 15.2548" stroke="#35A97F" stroke-width="2" stroke-linejoin="round"/>
<path d="M11.8723 20.1977C8.57447 20.1977 5.93617 17.5615 5.93617 13.9366C5.93617 17.5615 3.29787 20.1977 1.07288e-06 20.1977" stroke="#35A97F" stroke-width="2" stroke-linejoin="round"/>
<line x1="6.2766" y1="10.6414" x2="6.2766" y2="24.4816" stroke="#35A97F" stroke-width="2" stroke-linejoin="round"/>
</svg>
