<svg width="56" height="25" viewBox="0 0 56 25" fill="none" xmlns="http://www.w3.org/2000/svg">
<path d="M19 14C24 14 28 18 28 23.5C28 18 32 14 37 14" stroke="#FFFFE9" stroke-width="2" stroke-linejoin="round"/>
<path d="M19 6.5C24 6.5 28 10.5 28 16C28 10.5 32 6.5 37 6.5" stroke="#FFFFE9" stroke-width="2" stroke-linejoin="round"/>
<line x1="28" y1="21" x2="28" y2="-8.74228e-08" stroke="#FFFFE9" stroke-width="2" stroke-linejoin="round"/>
<path d="M55.8724 9.23404C52.5745 9.23404 49.9362 11.8723 49.9362 15.5C49.9362 11.8723 47.2979 9.23404 44 9.23404" stroke="#FFFFE9" stroke-width="2" stroke-linejoin="round"/>
<path d="M55.8724 4.28727C52.5745 4.28727 49.9362 6.92556 49.9362 10.5532C49.9362 6.92556 47.2979 4.28727 44 4.28727" stroke="#FFFFE9" stroke-width="2" stroke-linejoin="round"/>
<line y1="-1" x2="13.8511" y2="-1" transform="matrix(0 -1 -1 0 49.2766 13.8511)" stroke="#FFFFE9" stroke-width="2" stroke-linejoin="round"/>
<path d="M11.8724 9.23404C8.5745 9.23404 5.9362 11.8723 5.9362 15.5C5.9362 11.8723 3.2979 9.23404 2.77758e-05 9.23404" stroke="#FFFFE9" stroke-width="2" stroke-linejoin="round"/>
<path d="M11.8724 4.28727C8.5745 4.28727 5.9362 6.92556 5.9362 10.5532C5.9362 6.92556 3.2979 4.28727 2.77758e-05 4.28727" stroke="#FFFFE9" stroke-width="2" stroke-linejoin="round"/>
<line y1="-1" x2="13.8511" y2="-1" transform="matrix(0 -1 -1 0 5.27662 13.8511)" stroke="#FFFFE9" stroke-width="2" stroke-linejoin="round"/>
</svg>
